# AST/ASF file generated using VICON BodyLanguage
# -----------------------------------------------
:version 1.10
:name VICON
:units
  mass 1.0
  length 0.45
  angle deg
:documentation
   .ast/.asf automatically generated from VICON data using
   VICON BodyBuilder and BodyLanguage model FoxedUp or BRILLIANT.MOD
:root
   order TX TY TZ RX RY RZ
   axis XYZ
   position 0 0 0  
   orientation 0 0 0 
:bonedata
  begin
     id 1 
     name lhipjoint
     direction 0.578396 -0.714046 0.394458 
     length 2.21935 
     axis 0 0 0  XYZ
  end
  begin
     id 2 
     name lfemur
     direction 0.34202 -0.939693 0  
     length 6.39105  
     axis 0 0 20  XYZ
    dof rx ry rz
    limits (-160.0 20.0)
           (-70.0 70.0)
           (-60.0 70.0)
  end
  begin
     id 3 
     name ltibia
     direction 0.34202 -0.939693 0   
     length 6.99037   
     axis 0 0 20   XYZ
    dof rx
    limits (-10.0 170.0)
  end
  begin
     id 4 
     name lfoot
     direction 0.0582372 -0.160005 0.985397   
     length 2.06111   
     axis -90 7.62852e-016 20   XYZ
    dof rx rz
    limits (-45.0 90.0)
           (-70.0 20.0)
  end
  begin
     id 5 
     name ltoes
     direction 1.53556e-011 -4.21875e-011 1   
     length 1.04074   
     axis -90 7.62852e-016 20   XYZ
    dof rx
    limits (-90.0 20.0)
  end
  begin
     id 6 
     name rhipjoint
     direction -0.558179 -0.726269 0.40121   
     length 2.182  
     axis 0 0 0  XYZ 
  end
  begin
     id 7 
     name rfemur
     direction -0.34202 -0.939693 0   
     length 6.51172   
     axis 0 0 -20   XYZ
    dof rx ry rz
    limits (-160.0 20.0)
           (-70.0 70.0)
           (-70.0 60.0)
  end
  begin
     id 8 
     name rtibia
     direction -0.34202 -0.939693 0   
     length 7.02607   
     axis 0 0 -20   XYZ
    dof rx
    limits (-10.0 170.0)
 end
 begin
     id 9 
     name rfoot
     direction -0.0788856 -0.216737 0.973038   
     length 1.96734  
     axis -90 -7.62852e-016 -20   XYZ
    dof rx rz
    limits (-45.0 90.0)
           (-20.0 70.0)
  end
  begin
     id 10 
     name rtoes
     direction -1.53567e-011 -4.21783e-011 1   
     length 0.990825   
     axis -90 -7.62852e-016 -20   XYZ
    dof rx
    limits (-90.0 20.0)
  end
  begin
     id 11 
     name lowerback
     direction 0.00668177 0.999323 -0.0361741   
     length 1.7655   
     axis 0 0 0   XYZ
    dof rx ry rz
    limits (-20.0 45.0)
           (-30.0 30.0)
           (-30.0 30.0)
  end
  begin
     id 12 
     name upperback
     direction -0.00222086 0.99851 0.0545167   
     length 1.74912   
     axis 0 0 0   XYZ
    dof rx ry rz
    limits (-20.0 45.0)
           (-30.0 30.0)
           (-30.0 30.0)
  end
  begin
     id 13 
     name thorax
     direction -0.00733971 0.997496 0.0703443   
     length 1.75715   
     axis 0 0 0   XYZ
    dof rx ry rz
    limits (-20.0 45.0)
           (-30.0 30.0)
           (-30.0 30.0)
  end
  begin
     id 14 
     name lowerneck
     direction 0.0279797 0.994795 0.0979765   
     length 1.46939   
     axis 0 0 0   XYZ
    dof rx ry rz
    limits (-20.0 45.0)
           (-30.0 30.0)
           (-30.0 30.0)
  end
  begin
     id 15 
     name upperneck
     direction 0.00339187 0.976776 -0.214238   
     length 1.48018   
     axis 0 0 0   XYZ
    dof rx ry rz
    limits (-20.0 45.0)
           (-30.0 30.0)
           (-30.0 30.0)
  end
  begin
     id 16
     name head
     direction -0.00263506 0.996603 -0.0823096  
     length 1.4976  
     axis 0 0 0   XYZ
    dof rx ry rz
    limits (-20.0 45.0)
           (-30.0 30.0)
           (-30.0 30.0)
  end
  begin
     id 17 
     name lclavicle
     direction 0.894044 0.44508 -0.0508781  
     length 3.03024  
     axis 0 0 0   XYZ
    dof ry rz
    limits (-20.0 10.0)
           (0.0 20.0)
  end
  begin
     id 18 
     name lhumerus
     direction 1 -4.48961e-011 -2.39475e-018   
     length 4.4661   
     axis 180 -30 -90   XYZ
    dof rx ry rz
    limits (-60.0 90.0)
           (-90.0 90.0)
           (-90.0 90.0)
  end
  begin
     id 19
     name lradius
     direction 1 -4.48961e-011 9.29328e-028   
     length 3.41414   
     axis 180 -30 -90   XYZ
    dof rx
    limits (-10.0 170.0)
  end
  begin
     id 20
     name lwrist
     direction 1 -4.48985e-011 1.53461e-026   
     length 1.70707   
     axis -1.09697e-014 90 90   XYZ
    dof ry
    limits (-180.0 0.0)
 end
  begin
     id 21 
     name lhand
     direction 1 -4.48966e-011 3.06923e-026   
     length 0.328298   
     axis -1.95843e-014 90 90   XYZ
    dof rx rz
    limits (-90.0 90.0)
           (-45.0 45.0)
  end
  begin
     id 22 
     name lfingers
     direction 1 -4.48893e-011 6.13845e-026   
     length 0.264682   
     axis -3.91686e-014 90 90   XYZ
    dof rx
    limits (0.0 90.0)
  end
  begin
     id 23
     name lthumb
     direction 0.707107 -6.34876e-011 0.707107   
     length 0.380032   
     axis -90 45 2.85299e-015   XYZ
    dof rx rz
    limits (-45.0 45.0)
           (-45.0 45.0)
  end
  begin
     id 24 
     name rclavicle
     direction -0.936955 0.347862 -0.0332887   
     length 3.26927  
     axis 0 0 0   XYZ 
    dof ry rz
    limits (-10.0 20.0)
           (-20.0 0.0)
  end
  begin
     id 25 
     name rhumerus
     direction -1 -4.4896e-011 1.78637e-018  
     length 4.40431   
     axis 180 30 90   XYZ
    dof rx ry rz
    limits (-90.0 60.0)
           (-90.0 90.0)
           (-90.0 90.0)
  end
  begin
     id 26 
     name rradius
     direction -1 -4.48955e-011 9.34036e-027   
     length 3.04688   
     axis 180 30 90   XYZ
    dof rx
    limits (-10.0 170.0)
  end
  begin
     id 27 
     name rwrist
     direction -1 -4.49011e-011 1.53461e-026   
     length 1.52344   
     axis -1.09697e-014 -90 -90   XYZ
    dof ry
    limits (-180.0 0.0)
  end
  begin
     id 28
     name rhand
     direction -1 -4.48834e-011 3.06923e-026   
     length 0.500489   
     axis -1.95843e-014 -90 -90   XYZ
    dof rx rz
    limits (-90.0 90.0)
           (-45.0 45.0)
  end
  begin
     id 29
     name rfingers
     direction -1 -4.48967e-011 6.13845e-026   
     length 0.403507   
     axis -3.91686e-014 -90 -90   XYZ
    dof rx
    limits (0.0 90.0)
  end
  begin
     id 30
     name rthumb
     direction -0.707107 -6.34826e-011 0.707107   
     length 0.579358   
     axis -90 -45 -2.85299e-015   XYZ
    dof rx rz
    limits (-45.0 45.0)
           (-45.0 45.0)
  end
:hierarchy
  begin
    root lhipjoint rhipjoint lowerback
    lhipjoint lfemur
    lfemur ltibia
    ltibia lfoot
    lfoot ltoes
    rhipjoint rfemur
    rfemur rtibia
    rtibia rfoot
    rfoot rtoes
    lowerback upperback
    upperback thorax
    thorax lowerneck lclavicle rclavicle
    lowerneck upperneck
    upperneck head
    lclavicle lhumerus
    lhumerus lradius
    lradius lwrist
    lwrist lhand lthumb
    lhand lfingers
    rclavicle rhumerus
    rhumerus rradius
    rradius rwrist
    rwrist rhand rthumb
    rhand rfingers
  end

#!OML:ASF H:\IndianDance\Patient Classification 1\Patient 1\Session 1\dancer.ASF
:FULLY-SPECIFIED
:DEGREES
105
root -0.53017 13.8474 12.5909 -175.495 -1.66116 -175.358
lowerback 4.56169 3.26082 2.2864
upperback -5.54978 4.44605 1.19415
thorax -8.31168 1.98277 -0.520637
lowerneck -19.6811 3.87026 3.51551
upperneck 22.75 3.01563 3.19502
head 10.5888 1.91659 0.975133
rclavicle 8.57259e-015 -5.06901e-015
rhumerus -6.99134 58.4579 -28.827
rradius 104.272
rwrist -1.19871
rhand -36.3718 41.7415
rfingers 7.12502
rthumb -9.46858 11.9742
lclavicle 8.57259e-015 -5.06901e-015
lhumerus 13.0553 -58.9861 4.57984
lradius 109.993
lwrist 13.649
lhand -45.5343 -13.5504
lfingers 7.12502
lthumb -18.2977 15.609
rfemur -37.9687 -38.323 22.892
rtibia 67.2388
rfoot -27.2408 -5.73403
rtoes 16.2279
lfemur -36.75 23.3858 -13.9392
ltibia 70.3868
lfoot -28.3603 -3.27068
ltoes -6.20893
106
root -0.569464 13.8611 12.6032 -175.512 -1.66933 -175.263
lowerback 4.60805 3.30941 2.31285
upperback -5.55693 4.51585 1.19211
thorax -8.34318 2.01469 -0.548324
lowerneck -19.6199 3.99762 3.60912
upperneck 22.5615 3.16116 3.27547
head 10.5093 2.00309 1.00606
rclavicle 2.75068e-014 2.98177e-015
rhumerus -7.16403 58.3955 -29.4565
rradius 104.077
rwrist -0.690839
rhand -36.5461 41.8619
rfingers 7.12502
rthumb -9.63672 12.1024
lclavicle 2.75068e-014 2.98177e-015
lhumerus 12.4778 -58.4512 5.11157
lradius 109.903
lwrist 13.2388
lhand -45.1261 -13.6434
lfingers 7.12502
lthumb -17.905 15.5524
rfemur -37.8612 -38.266 22.8359
rtibia 66.967
rfoot -26.9787 -5.75719
rtoes 16.1689
lfemur -36.5204 22.6794 -13.9498
ltibia 70.0539
lfoot -28.5723 -2.98348
ltoes -6.72772
107
root -0.609413 13.8738 12.615 -175.523 -1.66559 -175.168
lowerback 4.65291 3.35814 2.34106
upperback -5.57037 4.58519 1.1792
thorax -8.37948 2.04568 -0.588512
lowerneck -19.5636 4.13565 3.70075
upperneck 22.3615 3.3168 3.37816
head 10.4266 2.09665 1.0463
rclavicle 5.93993e-014 1.6201e-014
rhumerus -7.36383 58.3447 -30.186
rradius 103.834
rwrist -0.0472733
rhand -36.8537 42.1283
rfingers 7.12502
rthumb -9.93345 12.3827
lclavicle 5.93993e-014 1.6201e-014
lhumerus 11.8567 -57.8664 5.64631
lradius 109.815
lwrist 12.6806
lhand -44.7211 -13.8549
lfingers 7.12502
lthumb -17.5153 15.3761
rfemur -37.768 -38.2237 22.7807
rtibia 66.7106
rfoot -26.7192 -5.75586
rtoes 16.0964
lfemur -36.3046 22.0562 -14.0012
ltibia 69.7109
lfoot -28.8101 -2.64145
ltoes -6.82319
108
root -0.650066 13.8857 12.6263 -175.528 -1.65173 -175.073
lowerback 4.69344 3.40557 2.37265
upperback -5.59063 4.65205 1.15517
thorax -8.41937 2.0746 -0.641949
lowerneck -19.5065 4.28427 3.78883
upperneck 22.1412 3.48521 3.49872
head 10.336 2.19782 1.09453
rclavicle 3.26131e-014 9.0447e-015
rhumerus -7.59682 58.3034 -31.0325
rradius 103.534
rwrist 0.733145
rhand -37.2985 42.5859
rfingers 7.12502
rthumb -10.3626 12.8612
lclavicle 3.26131e-014 9.0447e-015
lhumerus 11.1793 -57.2275 6.20092
lradius 109.717
lwrist 11.9409
lhand -44.3936 -14.2692
lfingers 7.12502
lthumb -17.2001 14.9896
rfemur -37.6921 -38.2032 22.7285
rtibia 66.4671
rfoot -26.4591 -5.72585
rtoes 16.01
lfemur -36.1046 21.5257 -14.1013
ltibia 69.3531
lfoot -29.0864 -2.20702
ltoes -6.58167
109
root -0.691216 13.8971 12.6371 -175.523 -1.62974 -174.98
lowerback 4.72746 3.45159 2.40582
upperback -5.61749 4.71594 1.11808
thorax -8.46125 2.10132 -0.709485
lowerneck -19.4478 4.4431 3.87438
upperneck 21.8912 3.66733 3.63379
head 10.2344 2.30672 1.14922
rclavicle 1.66606e-014 -1.70955e-014
rhumerus -7.88008 58.2639 -32.0215
rradius 103.172
rwrist 1.62524
rhand -37.8563 43.2699
rfingers 7.12502
rthumb -10.9007 13.5729
lclavicle 1.66606e-014 -1.70955e-014
lhumerus 10.4457 -56.5227 6.77657
lradius 109.61
lwrist 10.9959
lhand -44.19 -14.9461
lfingers 7.12502
lthumb -17.0041 14.3296
rfemur -37.6353 -38.2087 22.6801
rtibia 66.232
rfoot -26.1934 -5.66687
rtoes 15.9107
lfemur -35.9197 21.0864 -14.2506
ltibia 68.9755
lfoot -29.3986 -1.72344
ltoes -5.86792
110
root -0.732879 13.9088 12.6473 -175.507 -1.60132 -174.893
lowerback 4.75513 3.49489 2.4354
upperback -5.64911 4.7748 1.06909
thorax -8.50378 2.12527 -0.786774
lowerneck -19.3893 4.61157 3.95561
upperneck 21.6038 3.86536 3.77709
head 10.1193 2.42357 1.20848
rclavicle 2.96935e-014 4.96962e-015
rhumerus -8.21963 58.2267 -33.1655
rradius 102.758
rwrist 2.59203
rhand -38.5286 44.1752
rfingers 7.12502
rthumb -11.5491 14.5134
lclavicle 2.96935e-014 4.96962e-015
lhumerus 9.62815 -55.7295 7.41232
lradius 109.466
lwrist 9.80869
lhand -44.167 -15.9893
lfingers 7.12502
lthumb -16.982 13.2883
rfemur -37.598 -38.2419 22.6322
rtibia 66.003
rfoot -25.919 -5.57872
rtoes 15.8022
lfemur -35.7464 20.7323 -14.4492
ltibia 68.5766
lfoot -29.7439 -1.21257
ltoes -4.72401
111
root -0.77495 13.9212 12.6572 -175.479 -1.56889 -174.813
lowerback 4.77939 3.53451 2.45858
upperback -5.6868 4.82713 1.00811
thorax -8.55036 2.14578 -0.872397
lowerneck -19.3295 4.78994 4.03153
upperneck 21.271 4.08211 3.92332
head 9.98767 2.54891 1.27061
rclavicle -2.74074e-014 -8.54774e-015
rhumerus -8.62493 58.1919 -34.4773
rradius 102.298
rwrist 3.58476
rhand -39.2731 45.3123
rfingers 7.12502
rthumb -12.267 15.692
lclavicle -2.74074e-014 -8.54774e-015
lhumerus 8.715 -54.8273 8.12564
lradius 109.282
lwrist 8.36527
lhand -44.3577 -17.3896
lfingers 7.12502
lthumb -17.1655 11.8721
rfemur -37.582 -38.3071 22.5863
rtibia 65.7776
rfoot -25.6317 -5.45885
rtoes 15.6941
lfemur -35.5857 20.4447 -14.6838
ltibia 68.1609
lfoot -30.1068 -0.730567
ltoes -3.1825
112
root -0.817413 13.9342 12.667 -175.437 -1.53481 -174.745
lowerback 4.80422 3.57005 2.46977
upperback -5.73158 4.87201 0.934464
thorax -8.60489 2.16262 -0.964205
lowerneck -19.2679 4.97626 4.10086
upperneck 20.885 4.31701 4.06766
head 9.8369 2.68178 1.33363
rclavicle 2.4202e-014 -1.11319e-014
rhumerus -9.11793 58.1528 -35.9809
rradius 101.807
rwrist 4.54274
rhand -40.0415 46.6393
rfingers 7.12502
rthumb -13.0078 17.0648
lclavicle 2.4202e-014 -1.11319e-014
lhumerus 7.69891 -53.7849 8.93502
lradius 109.047
lwrist 6.66191
lhand -44.7696 -19.1558
lfingers 7.12502
lthumb -17.5619 10.071
rfemur -37.5942 -38.4073 22.5383
rtibia 65.5602
rfoot -25.3316 -5.29947
rtoes 15.6197
lfemur -35.4433 20.2082 -14.9512
ltibia 67.7368
lfoot -30.4647 -0.233528
ltoes -1.66113
113
root -0.860153 13.9479 12.6769 -175.382 -1.50013 -174.693
lowerback 4.83564 3.60094 2.46723
upperback -5.78243 4.90857 0.843374
thorax -8.66961 2.17537 -1.06658
lowerneck -19.2096 5.17068 4.1694
upperneck 20.4407 4.56937 4.2057
head 9.66667 2.82174 1.39477
rclavicle -3.66261e-014 -7.55382e-015
rhumerus -9.71908 58.1001 -37.7069
rradius 101.294
rwrist 5.42842
rhand -40.8112 48.0809
rfingers 7.12502
rthumb -13.7497 18.5552
lclavicle -3.66261e-014 -7.55382e-015
lhumerus 6.59942 -52.5673 9.82307
lradius 108.766
lwrist 4.71713
lhand -45.3794 -21.2817
lfingers 7.12502
lthumb -18.1487 7.89162
rfemur -37.6339 -38.5387 22.4829
rtibia 65.3553
rfoot -25.0222 -5.10117
rtoes 15.5899
lfemur -35.3221 19.9975 -15.2376
ltibia 67.3169
lfoot -30.7885 0.250188
ltoes -0.319411
114
root -0.902973 13.962 12.687 -175.311 -1.4639 -174.665
lowerback 4.87628 3.63134 2.444
upperback -5.84103 4.94156 0.731592
thorax -8.74808 2.18656 -1.17994
lowerneck -19.1565 5.36725 4.22503
upperneck 19.935 4.83345 4.34089
head 9.47603 2.96543 1.45612
rclavicle 8.64713e-015 4.77083e-015
rhumerus -10.462 58.0206 -39.6869
rradius 100.788
rwrist 6.17823
rhand -41.5238 49.5202
rfingers 7.12502
rthumb -14.4364 20.0423
lclavicle 8.64713e-015 4.77083e-015
lhumerus 5.44542 -51.1413 10.775
lradius 108.442
lwrist 2.56616
lhand -46.1602 -23.7219
lfingers 7.12502
lthumb -18.8998 5.37991
rfemur -37.7091 -38.6946 22.415
rtibia 65.1747
rfoot -24.711 -4.8789
rtoes 15.5701
lfemur -35.23 19.8011 -15.5386
ltibia 66.9155
lfoot -31.052 0.678046
ltoes 0.8
115
root -0.945567 13.9758 12.6976 -175.224 -1.42439 -174.665
lowerback 4.92779 3.65706 2.3993
upperback -5.90917 4.96455 0.592425
thorax -8.84296 2.19271 -1.3104
lowerneck -19.104 5.57127 4.28151
upperneck 19.3624 5.11304 4.46918
head 9.26317 3.1148 1.51408
rclavicle -2.75814e-014 -5.56597e-015
rhumerus -11.3447 57.8968 -41.9433
rradius 100.28
rwrist 6.79533
rhand -42.1372 50.924
rfingers 7.12502
rthumb -15.0273 21.4893
lclavicle -2.75814e-014 -5.56597e-015
lhumerus 4.25756 -49.4701 11.7556
lradius 108.083
lwrist 0.262257
lhand -47.0822 -26.4459
lfingers 7.12502
lthumb -19.7863 2.56702
rfemur -37.8274 -38.8649 22.3324
rtibia 65.0311
rfoot -24.4076 -4.6393
rtoes 15.5549
lfemur -35.178 19.617 -15.8517
ltibia 66.5462
lfoot -31.2389 1.03912
ltoes 1.63259
116
root -0.987559 13.9886 12.7088 -175.117 -1.38001 -174.698
lowerback 4.99113 3.67847 2.3292
upperback -5.98763 4.97688 0.419167
thorax -8.95552 2.1934 -1.46294
lowerneck -19.0539 5.78173 4.3386
upperneck 18.7193 5.40533 4.59369
head 9.02751 3.26848 1.56909
rclavicle 3.52843e-014 7.55382e-015
rhumerus -12.3762 57.7157 -44.5033
rradius 99.7785
rwrist 7.27756
rhand -42.6726 52.1881
rfingers 7.12502
rthumb -15.543 22.7928
lclavicle 3.52843e-014 7.55382e-015
lhumerus 3.08007 -47.5255 12.7124
lradius 107.706
lwrist -2.13152
lhand -48.1238 -29.4284
lfingers 7.12502
lthumb -20.7873 -0.521935
rfemur -37.9972 -39.0416 22.2324
rtibia 64.9415
rfoot -24.1152 -4.40471
rtoes 15.4617
lfemur -35.1743 19.4538 -16.1864
ltibia 66.2168
lfoot -31.3483 1.37364
ltoes 2.06979
117
root -1.0285 14.0003 12.7204 -174.988 -1.32536 -174.77
lowerback 5.0633 3.69593 2.23232
upperback -6.0779 4.97753 0.20647
thorax -9.08544 2.18779 -1.64226
lowerneck -19.0006 5.99897 4.40094
upperneck 18.0007 5.70946 4.71256
head 8.76703 3.42559 1.61911
rclavicle 2.73329e-015 -1.07344e-014
rhumerus -13.5422 57.4669 -47.3653
rradius 99.2931
rwrist 7.63584
rhand -43.1156 53.2755
rfingers 7.12502
rthumb -15.9697 23.9138
lclavicle 2.73329e-015 -1.07344e-014
lhumerus 1.95085 -45.2835 13.5978
lradius 107.319
lwrist -4.53925
lhand -49.2559 -32.6665
lfingers 7.12502
lthumb -21.8747 -3.88302
rfemur -38.2227 -39.2094 22.115
rtibia 64.9201
rfoot -23.833 -4.20067
rtoes 15.2148
lfemur -35.2232 19.3239 -16.5464
ltibia 65.9299
lfoot -31.3955 1.58782
ltoes 2.51668
